<?xml version="1.0" encoding="UTF-8"?>
<svg width="610px" height="215px" viewBox="0 0 610 215" version="1.1" xmlns="http://www.w3.org/2000/svg" xmlns:xlink="http://www.w3.org/1999/xlink">
    <!-- Generator: Sketch 51.1 (57501) - http://www.bohemiancoding.com/sketch -->
    <title>Group 4</title>
    <desc>Created with Sketch.</desc>
    <defs></defs>
    <g id="Page-1" stroke="none" stroke-width="1" fill="none" fill-rule="evenodd" opacity="0.503125">
        <g id="Group-4" fill="#F4B73A" fill-rule="nonzero">
            <path d="M530,215 C485.81722,215 450,179.18278 450,135 C450,90.81722 485.81722,55 530,55 C574.18278,55 610,90.81722 610,135 C610,179.18278 574.18278,215 530,215 Z M530,188.333333 C559.455187,188.333333 583.333333,164.455187 583.333333,135 C583.333333,105.544813 559.455187,81.6666667 530,81.6666667 C500.544813,81.6666667 476.666667,105.544813 476.666667,135 C476.666667,164.455187 500.544813,188.333333 530,188.333333 Z" id="Combined-Shape"></path>
            <path d="M389.469725,214.366303 C367.660813,214.366303 349.981196,196.686686 349.981196,174.877774 C349.981196,153.068861 367.660813,135.389244 389.469725,135.389244 C411.278638,135.389244 428.958255,153.068861 428.958255,174.877774 C428.958255,196.686686 411.278638,214.366303 389.469725,214.366303 Z M389.469725,201.20346 C404.009001,201.20346 415.795412,189.417049 415.795412,174.877774 C415.795412,160.338499 404.009001,148.552087 389.469725,148.552087 C374.93045,148.552087 363.144039,160.338499 363.144039,174.877774 C363.144039,189.417049 374.93045,201.20346 389.469725,201.20346 Z" id="Combined-Shape"></path>
            <path d="M39.4885295,78.977059 C17.6796169,78.977059 0,61.2974422 0,39.4885295 C0,17.6796169 17.6796169,0 39.4885295,0 C61.2974422,0 78.977059,17.6796169 78.977059,39.4885295 C78.977059,61.2974422 61.2974422,78.977059 39.4885295,78.977059 Z M39.4885295,65.8142159 C54.0278046,65.8142159 65.8142159,54.0278046 65.8142159,39.4885295 C65.8142159,24.9492544 54.0278046,13.1628432 39.4885295,13.1628432 C24.9492544,13.1628432 13.1628432,24.9492544 13.1628432,39.4885295 C13.1628432,54.0278046 24.9492544,65.8142159 39.4885295,65.8142159 Z" id="Combined-Shape"></path>
            <path d="M310.923656,179.847311 C301.576979,179.847311 294,172.270332 294,162.923656 C294,153.576979 301.576979,146 310.923656,146 C320.270332,146 327.847311,153.576979 327.847311,162.923656 C327.847311,172.270332 320.270332,179.847311 310.923656,179.847311 Z M311,172 C315.970563,172 320,167.970563 320,163 C320,158.029437 315.970563,154 311,154 C306.029437,154 302,158.029437 302,163 C302,167.970563 306.029437,172 311,172 Z" id="Combined-Shape"></path>
        </g>
    </g>
</svg>