<?xml version="1.0" encoding="UTF-8"?>
<svg width="2000px" height="1297px" viewBox="0 0 2000 1297" version="1.1" xmlns="http://www.w3.org/2000/svg" xmlns:xlink="http://www.w3.org/1999/xlink">
    <!-- Generator: Sketch 51.1 (57501) - http://www.bohemiancoding.com/sketch -->
    <title>Group 2</title>
    <desc>Created with Sketch.</desc>
    <defs>
        <linearGradient x1="25.3068303%" y1="50%" x2="100%" y2="100%" id="linearGradient-1">
            <stop stop-color="#FDC44F" offset="0%"></stop>
            <stop stop-color="#FDE54F" offset="100%"></stop>
        </linearGradient>
    </defs>
    <g id="Page-1" stroke="none" stroke-width="1" fill="none" fill-rule="evenodd">
        <g id="Group-2" fill-rule="nonzero">
            <path d="M-4.09272616e-12,991.291287 C-4.0785909e-12,832.419602 628.711233,786.989965 837.331998,554.861465 C1045.95276,322.732965 1050.1796,177.016644 1323.31081,57.959448 C1609.8884,-66.9589886 1835.45146,10.0475802 2000,288.979154 L2000,1296.98793 L-4.09272616e-12,1296.98793 C-4.09272616e-12,1296.98793 -4.09272616e-12,1195.08905 -4.09272616e-12,991.291287 Z" id="Triangle" fill="url(#linearGradient-1)" transform="translate(1000.000000, 648.493963) scale(-1, -1) translate(-1000.000000, -648.493963) "></path>
            <path d="M1021,1108 C855.314575,1108 721,973.685425 721,808 C721,642.314575 855.314575,508 1021,508 C1186.68542,508 1321,642.314575 1321,808 C1321,973.685425 1186.68542,1108 1021,1108 Z M1021,1008 C1131.45695,1008 1221,918.45695 1221,808 C1221,697.54305 1131.45695,608 1021,608 C910.54305,608 821,697.54305 821,808 C821,918.45695 910.54305,1008 1021,1008 Z" id="Combined-Shape" fill="#F4B73A" opacity="0.503125"></path>
            <path d="M1800,1008 C1689.54305,1008 1600,918.45695 1600,808 C1600,697.54305 1689.54305,608 1800,608 C1910.45695,608 2000,697.54305 2000,808 C2000,918.45695 1910.45695,1008 1800,1008 Z M1800,941.333333 C1873.63797,941.333333 1933.33333,881.637967 1933.33333,808 C1933.33333,734.362033 1873.63797,674.666667 1800,674.666667 C1726.36203,674.666667 1666.66667,734.362033 1666.66667,808 C1666.66667,881.637967 1726.36203,941.333333 1800,941.333333 Z" id="Combined-Shape" fill="#F4B73A" opacity="0.503125"></path>
        </g>
    </g>
</svg>