<?xml version="1.0" encoding="UTF-8"?>
<svg width="7616px" height="5239px" viewBox="0 0 7616 5239" version="1.1" xmlns="http://www.w3.org/2000/svg" xmlns:xlink="http://www.w3.org/1999/xlink">
    <!-- Generator: Sketch 51.1 (57501) - http://www.bohemiancoding.com/sketch -->
    <title>triangle_back</title>
    <desc>Created with Sketch.</desc>
    <defs>
        <polygon id="path-1" points="0 0.475897477 7616 1400.04889 7616 5238.5463 0 5238.5463"></polygon>
        <linearGradient x1="100%" y1="0%" x2="0%" y2="100%" id="linearGradient-3">
            <stop stop-color="#58CEB6" offset="0%"></stop>
            <stop stop-color="#6EB98D" offset="100%"></stop>
        </linearGradient>
    </defs>
    <g id="Page-1" stroke="none" stroke-width="1" fill="none" fill-rule="evenodd">
        <g id="triangle_back" transform="translate(3808.000000, 2619.500000) scale(-1, -1) translate(-3808.000000, -2619.500000) ">
            <mask id="mask-2" fill="white">
                <use xlink:href="#path-1"></use>
            </mask>
            <use id="Triangle" fill="#FFFFFF" fill-rule="nonzero" xlink:href="#path-1"></use>
            <g id="bg_green" mask="url(#mask-2)">
                <g transform="translate(-560.000000, -96.000000)">
                    <rect id="Rectangle" fill="url(#linearGradient-3)" fill-rule="nonzero" opacity="0.795703125" x="0" y="0" width="5200" height="5332.22176"></rect>
                    <g id="Group" stroke-width="1" fill="none" fill-rule="evenodd" transform="translate(2.167570, 173.405586)">
                        <path d="M618.87388,2625.47139 L1672.85336,2625.47139 C1686.1082,2625.47139 1696.85336,2636.21656 1696.85336,2649.47139 L1696.85336,3204.53018 C1696.85336,3217.78501 1686.1082,3228.53018 1672.85336,3228.53018 L618.87388,3228.53018 C605.619046,3228.53018 594.87388,3217.78501 594.87388,3204.53018 L594.87388,2649.47139 C594.87388,2636.21656 605.619046,2625.47139 618.87388,2625.47139 Z M0,1222.77665 L918.696313,1222.77665 C931.951147,1222.77665 942.696313,1233.52182 942.696313,1246.77665 L942.696313,2298.27609 C942.696313,2311.53093 931.951147,2322.27609 918.696313,2322.27609 L0,2322.27609 L0,2030.99088 L0,1222.77665 Z M4058.85024,4251.39784 L3004.87076,4251.39784 C2991.61592,4251.39784 2980.87076,4240.65268 2980.87076,4227.39784 L2980.87076,3672.33906 C2980.87076,3659.08422 2991.61592,3648.33906 3004.87076,3648.33906 L4058.85024,3648.33906 C4072.10507,3648.33906 4082.85024,3659.08422 4082.85024,3672.33906 L4082.85024,4227.39784 C4082.85024,4240.65268 4072.10507,4251.39784 4058.85024,4251.39784 Z" id="Combined-Shape" fill="#FEF0FB" fill-rule="nonzero" opacity="0.403794643"></path>
                        <path d="M2484.76245,2035.73988 L4182.37596,2035.73988 C4195.6308,2035.73988 4206.37596,2046.48504 4206.37596,2059.73988 L4206.37596,3111.23932 C4206.37596,3124.49415 4195.6308,3135.23932 4182.37596,3135.23932 L2484.76245,3135.23932 C2471.50761,3135.23932 2460.76245,3124.49415 2460.76245,3111.23932 L2460.76245,2059.73988 C2460.76245,2046.48504 2471.50761,2035.73988 2484.76245,2035.73988 Z M4230.37596,0 L5014.54926,3.55271368e-15 C5027.80409,1.11784017e-15 5038.54926,10.745166 5038.54926,24 L5038.54926,828.945021 C5038.54926,842.199855 5027.80409,852.945021 5014.54926,852.945021 L4230.37596,852.945021 C4217.12113,852.945021 4206.37596,842.199855 4206.37596,828.945021 L4206.37596,24 C4206.37596,10.745166 4217.12113,5.98758718e-15 4230.37596,3.55271368e-15 Z M1171.48896,0 L1643.59727,0 C1656.85211,-3.7752846e-14 1667.59727,10.745166 1667.59727,24 L1667.59727,509.090638 C1667.59727,522.345472 1656.85211,533.090638 1643.59727,533.090638 L1171.48896,533.090638 C1158.23413,533.090638 1147.48896,522.345472 1147.48896,509.090638 L1147.48896,24 C1147.48896,10.745166 1158.23413,2.4348735e-15 1171.48896,0 Z M4833.75661,5160.98374 L3731.77713,5160.98374 L3731.77713,4615.24312 C3731.77713,4601.98829 3742.5223,4591.24312 3755.77713,4591.24312 L4809.75661,4591.24312 C4823.01145,4591.24312 4833.75661,4601.98829 4833.75661,4615.24312 L4833.75661,5160.98374 Z" id="Combined-Shape" fill="#54BC5D" fill-rule="nonzero" opacity="0.267689732"></path>
                        <path d="M2492.76245,0 L3664.01968,0 C3681.69279,-3.24649801e-15 3696.01968,14.326888 3696.01968,32 L3696.01968,1234.09027 C3696.01968,1251.76338 3681.69279,1266.09027 3664.01968,1266.09027 L2492.76245,1266.09027 C2475.08933,1266.09027 2460.76245,1251.76338 2460.76245,1234.09027 L2460.76245,32 C2460.76245,14.326888 2475.08933,3.24649801e-15 2492.76245,0 Z M4747.2336,2035.73988 L5197.83243,2035.73988 L5197.83243,2888.6849 L4747.2336,2888.6849 C4733.97876,2888.6849 4723.2336,2877.93973 4723.2336,2864.6849 L4723.2336,2059.73988 C4723.2336,2046.48504 4733.97876,2035.73988 4747.2336,2035.73988 Z M2192.96167,4841.12936 L495.348157,4841.12936 C482.093323,4841.12936 471.348157,4830.38419 471.348157,4817.12936 L471.348157,3765.62992 C471.348157,3752.37508 482.093323,3741.62992 495.348157,3741.62992 L2192.96167,3741.62992 C2206.21651,3741.62992 2216.96167,3752.37508 2216.96167,3765.62992 L2216.96167,4817.12936 C2216.96167,4830.38419 2206.21651,4841.12936 2192.96167,4841.12936 Z" id="Combined-Shape" fill="#3A7E43" fill-rule="nonzero" opacity="0.218917411"></path>
                        <path d="M2068.6758,1772.52637 L2852.84909,1772.52637 C2866.10393,1772.52637 2876.84909,1783.27154 2876.84909,1796.52637 L2876.84909,2601.47139 C2876.84909,2614.72623 2866.10393,2625.47139 2852.84909,2625.47139 L2068.6758,2625.47139 C2055.42096,2625.47139 2044.6758,2614.72623 2044.6758,2601.47139 L2044.6758,1796.52637 C2044.6758,1783.27154 2055.42096,1772.52637 2068.6758,1772.52637 Z M2609.04832,5104.34286 L1824.87503,5104.34286 C1811.62019,5104.34286 1800.87503,5093.5977 1800.87503,5080.34286 L1800.87503,4275.39784 C1800.87503,4262.14301 1811.62019,4251.39784 1824.87503,4251.39784 L2609.04832,4251.39784 C2622.30316,4251.39784 2633.04832,4262.14301 2633.04832,4275.39784 L2633.04832,5080.34286 C2633.04832,5093.5977 2622.30316,5104.34286 2609.04832,5104.34286 Z" id="Combined-Shape" fill="#FFFFFF" fill-rule="nonzero" opacity="0.199497768"></path>
                    </g>
                    <g id="Group" stroke-width="1" fill="none" fill-rule="evenodd" transform="translate(2.167570, 173.405586)">
                        <path d="M618.87388,2625.47139 L1672.85336,2625.47139 C1686.1082,2625.47139 1696.85336,2636.21656 1696.85336,2649.47139 L1696.85336,3204.53018 C1696.85336,3217.78501 1686.1082,3228.53018 1672.85336,3228.53018 L618.87388,3228.53018 C605.619046,3228.53018 594.87388,3217.78501 594.87388,3204.53018 L594.87388,2649.47139 C594.87388,2636.21656 605.619046,2625.47139 618.87388,2625.47139 Z M0,1222.77665 L918.696313,1222.77665 C931.951147,1222.77665 942.696313,1233.52182 942.696313,1246.77665 L942.696313,2298.27609 C942.696313,2311.53093 931.951147,2322.27609 918.696313,2322.27609 L0,2322.27609 L0,2030.99088 L0,1222.77665 Z M4058.85024,4251.39784 L3004.87076,4251.39784 C2991.61592,4251.39784 2980.87076,4240.65268 2980.87076,4227.39784 L2980.87076,3672.33906 C2980.87076,3659.08422 2991.61592,3648.33906 3004.87076,3648.33906 L4058.85024,3648.33906 C4072.10507,3648.33906 4082.85024,3659.08422 4082.85024,3672.33906 L4082.85024,4227.39784 C4082.85024,4240.65268 4072.10507,4251.39784 4058.85024,4251.39784 Z" id="Combined-Shape" fill="#FEF0FB" fill-rule="nonzero" opacity="0.403794643"></path>
                        <path d="M2484.76245,2035.73988 L4182.37596,2035.73988 C4195.6308,2035.73988 4206.37596,2046.48504 4206.37596,2059.73988 L4206.37596,3111.23932 C4206.37596,3124.49415 4195.6308,3135.23932 4182.37596,3135.23932 L2484.76245,3135.23932 C2471.50761,3135.23932 2460.76245,3124.49415 2460.76245,3111.23932 L2460.76245,2059.73988 C2460.76245,2046.48504 2471.50761,2035.73988 2484.76245,2035.73988 Z M4230.37596,0 L5014.54926,0 C5027.80409,-2.4348735e-15 5038.54926,10.745166 5038.54926,24 L5038.54926,828.945021 C5038.54926,842.199855 5027.80409,852.945021 5014.54926,852.945021 L4230.37596,852.945021 C4217.12113,852.945021 4206.37596,842.199855 4206.37596,828.945021 L4206.37596,24 C4206.37596,10.745166 4217.12113,2.4348735e-15 4230.37596,0 Z M1171.48896,0 L1643.59727,0 C1656.85211,-3.7752846e-14 1667.59727,10.745166 1667.59727,24 L1667.59727,509.090638 C1667.59727,522.345472 1656.85211,533.090638 1643.59727,533.090638 L1171.48896,533.090638 C1158.23413,533.090638 1147.48896,522.345472 1147.48896,509.090638 L1147.48896,24 C1147.48896,10.745166 1158.23413,2.4348735e-15 1171.48896,0 Z M4833.75661,5160.98374 L3731.77713,5160.98374 L3731.77713,4615.24312 C3731.77713,4601.98829 3742.5223,4591.24312 3755.77713,4591.24312 L4809.75661,4591.24312 C4823.01145,4591.24312 4833.75661,4601.98829 4833.75661,4615.24312 L4833.75661,5160.98374 Z" id="Combined-Shape" fill="#54BC5D" fill-rule="nonzero" opacity="0.267689732"></path>
                        <path d="M2492.76245,0 L3664.01968,0 C3681.69279,-3.24649801e-15 3696.01968,14.326888 3696.01968,32 L3696.01968,1234.09027 C3696.01968,1251.76338 3681.69279,1266.09027 3664.01968,1266.09027 L2492.76245,1266.09027 C2475.08933,1266.09027 2460.76245,1251.76338 2460.76245,1234.09027 L2460.76245,32 C2460.76245,14.326888 2475.08933,3.24649801e-15 2492.76245,0 Z M4747.2336,2035.73988 L5197.83243,2035.73988 L5197.83243,2888.6849 L4747.2336,2888.6849 C4733.97876,2888.6849 4723.2336,2877.93973 4723.2336,2864.6849 L4723.2336,2059.73988 C4723.2336,2046.48504 4733.97876,2035.73988 4747.2336,2035.73988 Z M2192.96167,4841.12936 L495.348157,4841.12936 C482.093323,4841.12936 471.348157,4830.38419 471.348157,4817.12936 L471.348157,3765.62992 C471.348157,3752.37508 482.093323,3741.62992 495.348157,3741.62992 L2192.96167,3741.62992 C2206.21651,3741.62992 2216.96167,3752.37508 2216.96167,3765.62992 L2216.96167,4817.12936 C2216.96167,4830.38419 2206.21651,4841.12936 2192.96167,4841.12936 Z" id="Combined-Shape" fill="#3A7E43" fill-rule="nonzero" opacity="0.218917411"></path>
                        <path d="M2068.6758,1772.52637 L2852.84909,1772.52637 C2866.10393,1772.52637 2876.84909,1783.27154 2876.84909,1796.52637 L2876.84909,2601.47139 C2876.84909,2614.72623 2866.10393,2625.47139 2852.84909,2625.47139 L2068.6758,2625.47139 C2055.42096,2625.47139 2044.6758,2614.72623 2044.6758,2601.47139 L2044.6758,1796.52637 C2044.6758,1783.27154 2055.42096,1772.52637 2068.6758,1772.52637 Z M2609.04832,5104.34286 L1824.87503,5104.34286 C1811.62019,5104.34286 1800.87503,5093.5977 1800.87503,5080.34286 L1800.87503,4275.39784 C1800.87503,4262.14301 1811.62019,4251.39784 1824.87503,4251.39784 L2609.04832,4251.39784 C2622.30316,4251.39784 2633.04832,4262.14301 2633.04832,4275.39784 L2633.04832,5080.34286 C2633.04832,5093.5977 2622.30316,5104.34286 2609.04832,5104.34286 Z" id="Combined-Shape" fill="#FFFFFF" fill-rule="nonzero" opacity="0.199497768"></path>
                    </g>
                </g>
            </g>
            <g id="bg_green" mask="url(#mask-2)">
                <g transform="translate(7239.000000, 2571.500000) scale(-1, 1) translate(-7239.000000, -2571.500000) translate(4639.000000, -96.000000)">
                    <rect id="Rectangle" fill="url(#linearGradient-3)" fill-rule="nonzero" opacity="0.795703125" x="0" y="0" width="5200" height="5332.22176"></rect>
                    <g id="Group" stroke-width="1" fill="none" fill-rule="evenodd" transform="translate(2.167570, 173.405586)">
                        <path d="M618.87388,2625.47139 L1672.85336,2625.47139 C1686.1082,2625.47139 1696.85336,2636.21656 1696.85336,2649.47139 L1696.85336,3204.53018 C1696.85336,3217.78501 1686.1082,3228.53018 1672.85336,3228.53018 L618.87388,3228.53018 C605.619046,3228.53018 594.87388,3217.78501 594.87388,3204.53018 L594.87388,2649.47139 C594.87388,2636.21656 605.619046,2625.47139 618.87388,2625.47139 Z M0,1222.77665 L918.696313,1222.77665 C931.951147,1222.77665 942.696313,1233.52182 942.696313,1246.77665 L942.696313,2298.27609 C942.696313,2311.53093 931.951147,2322.27609 918.696313,2322.27609 L0,2322.27609 L0,2030.99088 L0,1222.77665 Z M4058.85024,4251.39784 L3004.87076,4251.39784 C2991.61592,4251.39784 2980.87076,4240.65268 2980.87076,4227.39784 L2980.87076,3672.33906 C2980.87076,3659.08422 2991.61592,3648.33906 3004.87076,3648.33906 L4058.85024,3648.33906 C4072.10507,3648.33906 4082.85024,3659.08422 4082.85024,3672.33906 L4082.85024,4227.39784 C4082.85024,4240.65268 4072.10507,4251.39784 4058.85024,4251.39784 Z" id="Combined-Shape" fill="#FEF0FB" fill-rule="nonzero" opacity="0.403794643"></path>
                        <path d="M2484.76245,2035.73988 L4182.37596,2035.73988 C4195.6308,2035.73988 4206.37596,2046.48504 4206.37596,2059.73988 L4206.37596,3111.23932 C4206.37596,3124.49415 4195.6308,3135.23932 4182.37596,3135.23932 L2484.76245,3135.23932 C2471.50761,3135.23932 2460.76245,3124.49415 2460.76245,3111.23932 L2460.76245,2059.73988 C2460.76245,2046.48504 2471.50761,2035.73988 2484.76245,2035.73988 Z M4230.37596,0 L5014.54926,0 C5027.80409,-2.4348735e-15 5038.54926,10.745166 5038.54926,24 L5038.54926,828.945021 C5038.54926,842.199855 5027.80409,852.945021 5014.54926,852.945021 L4230.37596,852.945021 C4217.12113,852.945021 4206.37596,842.199855 4206.37596,828.945021 L4206.37596,24 C4206.37596,10.745166 4217.12113,2.4348735e-15 4230.37596,0 Z M1171.48896,0 L1643.59727,0 C1656.85211,-3.7752846e-14 1667.59727,10.745166 1667.59727,24 L1667.59727,509.090638 C1667.59727,522.345472 1656.85211,533.090638 1643.59727,533.090638 L1171.48896,533.090638 C1158.23413,533.090638 1147.48896,522.345472 1147.48896,509.090638 L1147.48896,24 C1147.48896,10.745166 1158.23413,2.4348735e-15 1171.48896,0 Z M4833.75661,5160.98374 L3731.77713,5160.98374 L3731.77713,4615.24312 C3731.77713,4601.98829 3742.5223,4591.24312 3755.77713,4591.24312 L4809.75661,4591.24312 C4823.01145,4591.24312 4833.75661,4601.98829 4833.75661,4615.24312 L4833.75661,5160.98374 Z" id="Combined-Shape" fill="#54BC5D" fill-rule="nonzero" opacity="0.267689732"></path>
                        <path d="M2492.76245,0 L3664.01968,0 C3681.69279,1.22328515e-13 3696.01968,14.326888 3696.01968,32 L3696.01968,1234.09027 C3696.01968,1251.76338 3681.69279,1266.09027 3664.01968,1266.09027 L2492.76245,1266.09027 C2475.08933,1266.09027 2460.76245,1251.76338 2460.76245,1234.09027 L2460.76245,32 C2460.76245,14.326888 2475.08933,3.24649801e-15 2492.76245,0 Z M4747.2336,2035.73988 L5197.83243,2035.73988 L5197.83243,2888.6849 L4747.2336,2888.6849 C4733.97876,2888.6849 4723.2336,2877.93973 4723.2336,2864.6849 L4723.2336,2059.73988 C4723.2336,2046.48504 4733.97876,2035.73988 4747.2336,2035.73988 Z M2192.96167,4841.12936 L495.348157,4841.12936 C482.093323,4841.12936 471.348157,4830.38419 471.348157,4817.12936 L471.348157,3765.62992 C471.348157,3752.37508 482.093323,3741.62992 495.348157,3741.62992 L2192.96167,3741.62992 C2206.21651,3741.62992 2216.96167,3752.37508 2216.96167,3765.62992 L2216.96167,4817.12936 C2216.96167,4830.38419 2206.21651,4841.12936 2192.96167,4841.12936 Z" id="Combined-Shape" fill="#3A7E43" fill-rule="nonzero" opacity="0.218917411"></path>
                        <path d="M2068.6758,1772.52637 L2852.84909,1772.52637 C2866.10393,1772.52637 2876.84909,1783.27154 2876.84909,1796.52637 L2876.84909,2601.47139 C2876.84909,2614.72623 2866.10393,2625.47139 2852.84909,2625.47139 L2068.6758,2625.47139 C2055.42096,2625.47139 2044.6758,2614.72623 2044.6758,2601.47139 L2044.6758,1796.52637 C2044.6758,1783.27154 2055.42096,1772.52637 2068.6758,1772.52637 Z M2609.04832,5104.34286 L1824.87503,5104.34286 C1811.62019,5104.34286 1800.87503,5093.5977 1800.87503,5080.34286 L1800.87503,4275.39784 C1800.87503,4262.14301 1811.62019,4251.39784 1824.87503,4251.39784 L2609.04832,4251.39784 C2622.30316,4251.39784 2633.04832,4262.14301 2633.04832,4275.39784 L2633.04832,5080.34286 C2633.04832,5093.5977 2622.30316,5104.34286 2609.04832,5104.34286 Z" id="Combined-Shape" fill="#FFFFFF" fill-rule="nonzero" opacity="0.199497768"></path>
                    </g>
                    <g id="Group" stroke-width="1" fill="none" fill-rule="evenodd" transform="translate(2.167570, 173.405586)">
                        <path d="M618.87388,2625.47139 L1672.85336,2625.47139 C1686.1082,2625.47139 1696.85336,2636.21656 1696.85336,2649.47139 L1696.85336,3204.53018 C1696.85336,3217.78501 1686.1082,3228.53018 1672.85336,3228.53018 L618.87388,3228.53018 C605.619046,3228.53018 594.87388,3217.78501 594.87388,3204.53018 L594.87388,2649.47139 C594.87388,2636.21656 605.619046,2625.47139 618.87388,2625.47139 Z M0,1222.77665 L918.696313,1222.77665 C931.951147,1222.77665 942.696313,1233.52182 942.696313,1246.77665 L942.696313,2298.27609 C942.696313,2311.53093 931.951147,2322.27609 918.696313,2322.27609 L0,2322.27609 L0,2030.99088 L0,1222.77665 Z M4058.85024,4251.39784 L3004.87076,4251.39784 C2991.61592,4251.39784 2980.87076,4240.65268 2980.87076,4227.39784 L2980.87076,3672.33906 C2980.87076,3659.08422 2991.61592,3648.33906 3004.87076,3648.33906 L4058.85024,3648.33906 C4072.10507,3648.33906 4082.85024,3659.08422 4082.85024,3672.33906 L4082.85024,4227.39784 C4082.85024,4240.65268 4072.10507,4251.39784 4058.85024,4251.39784 Z" id="Combined-Shape" fill="#FEF0FB" fill-rule="nonzero" opacity="0.403794643"></path>
                        <path d="M2484.76245,2035.73988 L4182.37596,2035.73988 C4195.6308,2035.73988 4206.37596,2046.48504 4206.37596,2059.73988 L4206.37596,3111.23932 C4206.37596,3124.49415 4195.6308,3135.23932 4182.37596,3135.23932 L2484.76245,3135.23932 C2471.50761,3135.23932 2460.76245,3124.49415 2460.76245,3111.23932 L2460.76245,2059.73988 C2460.76245,2046.48504 2471.50761,2035.73988 2484.76245,2035.73988 Z M4230.37596,0 L5014.54926,0 C5027.80409,-2.4348735e-15 5038.54926,10.745166 5038.54926,24 L5038.54926,828.945021 C5038.54926,842.199855 5027.80409,852.945021 5014.54926,852.945021 L4230.37596,852.945021 C4217.12113,852.945021 4206.37596,842.199855 4206.37596,828.945021 L4206.37596,24 C4206.37596,10.745166 4217.12113,2.4348735e-15 4230.37596,0 Z M1171.48896,0 L1643.59727,0 C1656.85211,-3.7752846e-14 1667.59727,10.745166 1667.59727,24 L1667.59727,509.090638 C1667.59727,522.345472 1656.85211,533.090638 1643.59727,533.090638 L1171.48896,533.090638 C1158.23413,533.090638 1147.48896,522.345472 1147.48896,509.090638 L1147.48896,24 C1147.48896,10.745166 1158.23413,2.4348735e-15 1171.48896,0 Z M4833.75661,5160.98374 L3731.77713,5160.98374 L3731.77713,4615.24312 C3731.77713,4601.98829 3742.5223,4591.24312 3755.77713,4591.24312 L4809.75661,4591.24312 C4823.01145,4591.24312 4833.75661,4601.98829 4833.75661,4615.24312 L4833.75661,5160.98374 Z" id="Combined-Shape" fill="#54BC5D" fill-rule="nonzero" opacity="0.267689732"></path>
                        <path d="M2492.76245,0 L3664.01968,0 C3681.69279,1.22328515e-13 3696.01968,14.326888 3696.01968,32 L3696.01968,1234.09027 C3696.01968,1251.76338 3681.69279,1266.09027 3664.01968,1266.09027 L2492.76245,1266.09027 C2475.08933,1266.09027 2460.76245,1251.76338 2460.76245,1234.09027 L2460.76245,32 C2460.76245,14.326888 2475.08933,3.24649801e-15 2492.76245,0 Z M4747.2336,2035.73988 L5197.83243,2035.73988 L5197.83243,2888.6849 L4747.2336,2888.6849 C4733.97876,2888.6849 4723.2336,2877.93973 4723.2336,2864.6849 L4723.2336,2059.73988 C4723.2336,2046.48504 4733.97876,2035.73988 4747.2336,2035.73988 Z M2192.96167,4841.12936 L495.348157,4841.12936 C482.093323,4841.12936 471.348157,4830.38419 471.348157,4817.12936 L471.348157,3765.62992 C471.348157,3752.37508 482.093323,3741.62992 495.348157,3741.62992 L2192.96167,3741.62992 C2206.21651,3741.62992 2216.96167,3752.37508 2216.96167,3765.62992 L2216.96167,4817.12936 C2216.96167,4830.38419 2206.21651,4841.12936 2192.96167,4841.12936 Z" id="Combined-Shape" fill="#3A7E43" fill-rule="nonzero" opacity="0.218917411"></path>
                        <path d="M2068.6758,1772.52637 L2852.84909,1772.52637 C2866.10393,1772.52637 2876.84909,1783.27154 2876.84909,1796.52637 L2876.84909,2601.47139 C2876.84909,2614.72623 2866.10393,2625.47139 2852.84909,2625.47139 L2068.6758,2625.47139 C2055.42096,2625.47139 2044.6758,2614.72623 2044.6758,2601.47139 L2044.6758,1796.52637 C2044.6758,1783.27154 2055.42096,1772.52637 2068.6758,1772.52637 Z M2609.04832,5104.34286 L1824.87503,5104.34286 C1811.62019,5104.34286 1800.87503,5093.5977 1800.87503,5080.34286 L1800.87503,4275.39784 C1800.87503,4262.14301 1811.62019,4251.39784 1824.87503,4251.39784 L2609.04832,4251.39784 C2622.30316,4251.39784 2633.04832,4262.14301 2633.04832,4275.39784 L2633.04832,5080.34286 C2633.04832,5093.5977 2622.30316,5104.34286 2609.04832,5104.34286 Z" id="Combined-Shape" fill="#FFFFFF" fill-rule="nonzero" opacity="0.199497768"></path>
                    </g>
                </g>
            </g>
        </g>
    </g>
</svg>