<?xml version="1.0" encoding="UTF-8"?>
<svg width="7616px" height="1396px" viewBox="0 0 7616 1396" version="1.1" xmlns="http://www.w3.org/2000/svg" xmlns:xlink="http://www.w3.org/1999/xlink">
    <!-- Generator: Sketch 51.1 (57501) - http://www.bohemiancoding.com/sketch -->
    <title>triangle_back</title>
    <desc>Created with Sketch.</desc>
    <defs>
        <polygon id="path-1" points="0 0.0488944714 7616 1396 1195.75708 1396 0 1396"></polygon>
        <linearGradient x1="100%" y1="0%" x2="0%" y2="100%" id="linearGradient-3">
            <stop stop-color="#58CEB6" offset="0%"></stop>
            <stop stop-color="#6EB98D" offset="100%"></stop>
        </linearGradient>
    </defs>
    <g id="Page-1" stroke="none" stroke-width="1" fill="none" fill-rule="evenodd">
        <g id="triangle_back">
            <mask id="mask-2" fill="white">
                <use xlink:href="#path-1"></use>
            </mask>
            <use id="Triangle" fill="#FFFFFF" fill-rule="nonzero" xlink:href="#path-1"></use>
            <g id="bg_green" mask="url(#mask-2)">
                <g transform="translate(-1.000000, -102.000000)">
                    <rect id="Rectangle" fill="url(#linearGradient-3)" fill-rule="nonzero" opacity="0.795703125" x="0" y="0" width="1600" height="1600"></rect>
                    <g id="Group" stroke-width="1" fill="none" fill-rule="evenodd" transform="translate(1.000000, 52.000000)">
                        <path d="M207,788 L498,788 C511.254834,788 522,798.745166 522,812 L522,945 C522,958.254834 511.254834,969 498,969 L207,969 C193.745166,969 183,958.254834 183,945 L183,812 C183,798.745166 193.745166,788 207,788 Z M0,367 L266,367 C279.254834,367 290,377.745166 290,391 L290,673 C290,686.254834 279.254834,697 266,697 L0,697 L0,609.574654 L0,367 Z M1232,1276 L941,1276 C927.745166,1276 917,1265.25483 917,1252 L917,1119 C917,1105.74517 927.745166,1095 941,1095 L1232,1095 C1245.25483,1095 1256,1105.74517 1256,1119 L1256,1252 C1256,1265.25483 1245.25483,1276 1232,1276 Z" id="Combined-Shape" fill="#FEF0FB" fill-rule="nonzero" opacity="0.403794643"></path>
                        <path d="M781,611 L1270,611 C1283.25483,611 1294,621.745166 1294,635 L1294,917 C1294,930.254834 1283.25483,941 1270,941 L781,941 C767.745166,941 757,930.254834 757,917 L757,635 C757,621.745166 767.745166,611 781,611 Z M1318,0 L1526,0 C1539.25483,-2.4348735e-15 1550,10.745166 1550,24 L1550,232 C1550,245.254834 1539.25483,256 1526,256 L1318,256 C1304.74517,256 1294,245.254834 1294,232 L1294,24 C1294,10.745166 1304.74517,2.4348735e-15 1318,0 Z M377,0 L489,0 C502.254834,-2.4348735e-15 513,10.745166 513,24 L513,136 C513,149.254834 502.254834,160 489,160 L377,160 C363.745166,160 353,149.254834 353,136 L353,24 C353,10.745166 363.745166,2.4348735e-15 377,0 Z M1487,1549 L1148,1549 L1148,1402 C1148,1388.74517 1158.74517,1378 1172,1378 L1463,1378 C1476.25483,1378 1487,1388.74517 1487,1402 L1487,1549 Z" id="Combined-Shape" fill="#54BC5D" fill-rule="nonzero" opacity="0.267689732"></path>
                        <path d="M789,0 L1105,0 C1122.67311,2.81472554e-14 1137,14.326888 1137,32 L1137,348 C1137,365.673112 1122.67311,380 1105,380 L789,380 C771.326888,380 757,365.673112 757,348 L757,32 C757,14.326888 771.326888,3.24649801e-15 789,0 Z M1477,611 L1599,611 L1599,867 L1477,867 C1463.74517,867 1453,856.254834 1453,843 L1453,635 C1453,621.745166 1463.74517,611 1477,611 Z M658,1453 L169,1453 C155.745166,1453 145,1442.25483 145,1429 L145,1147 C145,1133.74517 155.745166,1123 169,1123 L658,1123 C671.254834,1123 682,1133.74517 682,1147 L682,1429 C682,1442.25483 671.254834,1453 658,1453 Z" id="Combined-Shape" fill="#3A7E43" fill-rule="nonzero" opacity="0.218917411"></path>
                        <path d="M653,532 L861,532 C874.254834,532 885,542.745166 885,556 L885,764 C885,777.254834 874.254834,788 861,788 L653,788 C639.745166,788 629,777.254834 629,764 L629,556 C629,542.745166 639.745166,532 653,532 Z M786,1532 L578,1532 C564.745166,1532 554,1521.25483 554,1508 L554,1300 C554,1286.74517 564.745166,1276 578,1276 L786,1276 C799.254834,1276 810,1286.74517 810,1300 L810,1508 C810,1521.25483 799.254834,1532 786,1532 Z" id="Combined-Shape" fill="#FFFFFF" fill-rule="nonzero" opacity="0.199497768"></path>
                    </g>
                </g>
            </g>
            <g id="bg_green" mask="url(#mask-2)">
                <g transform="translate(2398.000000, 699.000000) scale(-1, 1) translate(-2398.000000, -699.000000) translate(1598.000000, -101.000000)">
                    <rect id="Rectangle" fill="url(#linearGradient-3)" fill-rule="nonzero" opacity="0.795703125" x="0" y="0" width="1600" height="1600"></rect>
                    <g id="Group" stroke-width="1" fill="none" fill-rule="evenodd" transform="translate(1.000000, 51.000000)">
                        <path d="M207,788 L498,788 C511.254834,788 522,798.745166 522,812 L522,945 C522,958.254834 511.254834,969 498,969 L207,969 C193.745166,969 183,958.254834 183,945 L183,812 C183,798.745166 193.745166,788 207,788 Z M0,367 L266,367 C279.254834,367 290,377.745166 290,391 L290,673 C290,686.254834 279.254834,697 266,697 L0,697 L0,609.574654 L0,367 Z M1232,1276 L941,1276 C927.745166,1276 917,1265.25483 917,1252 L917,1119 C917,1105.74517 927.745166,1095 941,1095 L1232,1095 C1245.25483,1095 1256,1105.74517 1256,1119 L1256,1252 C1256,1265.25483 1245.25483,1276 1232,1276 Z" id="Combined-Shape" fill="#FEF0FB" fill-rule="nonzero" opacity="0.403794643"></path>
                        <path d="M781,611 L1270,611 C1283.25483,611 1294,621.745166 1294,635 L1294,917 C1294,930.254834 1283.25483,941 1270,941 L781,941 C767.745166,941 757,930.254834 757,917 L757,635 C757,621.745166 767.745166,611 781,611 Z M1318,0 L1526,0 C1539.25483,-2.4348735e-15 1550,10.745166 1550,24 L1550,232 C1550,245.254834 1539.25483,256 1526,256 L1318,256 C1304.74517,256 1294,245.254834 1294,232 L1294,24 C1294,10.745166 1304.74517,2.4348735e-15 1318,0 Z M377,0 L489,0 C502.254834,-2.4348735e-15 513,10.745166 513,24 L513,136 C513,149.254834 502.254834,160 489,160 L377,160 C363.745166,160 353,149.254834 353,136 L353,24 C353,10.745166 363.745166,2.4348735e-15 377,0 Z M1487,1549 L1148,1549 L1148,1402 C1148,1388.74517 1158.74517,1378 1172,1378 L1463,1378 C1476.25483,1378 1487,1388.74517 1487,1402 L1487,1549 Z" id="Combined-Shape" fill="#54BC5D" fill-rule="nonzero" opacity="0.267689732"></path>
                        <path d="M789,0 L1105,0 C1122.67311,2.81472554e-14 1137,14.326888 1137,32 L1137,348 C1137,365.673112 1122.67311,380 1105,380 L789,380 C771.326888,380 757,365.673112 757,348 L757,32 C757,14.326888 771.326888,3.24649801e-15 789,0 Z M1477,611 L1599,611 L1599,867 L1477,867 C1463.74517,867 1453,856.254834 1453,843 L1453,635 C1453,621.745166 1463.74517,611 1477,611 Z M658,1453 L169,1453 C155.745166,1453 145,1442.25483 145,1429 L145,1147 C145,1133.74517 155.745166,1123 169,1123 L658,1123 C671.254834,1123 682,1133.74517 682,1147 L682,1429 C682,1442.25483 671.254834,1453 658,1453 Z" id="Combined-Shape" fill="#3A7E43" fill-rule="nonzero" opacity="0.218917411"></path>
                        <path d="M653,532 L861,532 C874.254834,532 885,542.745166 885,556 L885,764 C885,777.254834 874.254834,788 861,788 L653,788 C639.745166,788 629,777.254834 629,764 L629,556 C629,542.745166 639.745166,532 653,532 Z M786,1532 L578,1532 C564.745166,1532 554,1521.25483 554,1508 L554,1300 C554,1286.74517 564.745166,1276 578,1276 L786,1276 C799.254834,1276 810,1286.74517 810,1300 L810,1508 C810,1521.25483 799.254834,1532 786,1532 Z" id="Combined-Shape" fill="#FFFFFF" fill-rule="nonzero" opacity="0.199497768"></path>
                    </g>
                </g>
            </g>
            <g id="bg_green" mask="url(#mask-2)">
                <g transform="translate(3197.000000, -101.000000)">
                    <rect id="Rectangle" fill="url(#linearGradient-3)" fill-rule="nonzero" opacity="0.795703125" x="0" y="0" width="1600" height="1600"></rect>
                    <g id="Group" stroke-width="1" fill="none" fill-rule="evenodd" transform="translate(1.000000, 51.000000)">
                        <path d="M207,788 L498,788 C511.254834,788 522,798.745166 522,812 L522,945 C522,958.254834 511.254834,969 498,969 L207,969 C193.745166,969 183,958.254834 183,945 L183,812 C183,798.745166 193.745166,788 207,788 Z M0,367 L266,367 C279.254834,367 290,377.745166 290,391 L290,673 C290,686.254834 279.254834,697 266,697 L0,697 L0,609.574654 L0,367 Z M1232,1276 L941,1276 C927.745166,1276 917,1265.25483 917,1252 L917,1119 C917,1105.74517 927.745166,1095 941,1095 L1232,1095 C1245.25483,1095 1256,1105.74517 1256,1119 L1256,1252 C1256,1265.25483 1245.25483,1276 1232,1276 Z" id="Combined-Shape" fill="#FEF0FB" fill-rule="nonzero" opacity="0.403794643"></path>
                        <path d="M781,611 L1270,611 C1283.25483,611 1294,621.745166 1294,635 L1294,917 C1294,930.254834 1283.25483,941 1270,941 L781,941 C767.745166,941 757,930.254834 757,917 L757,635 C757,621.745166 767.745166,611 781,611 Z M1318,0 L1526,0 C1539.25483,-2.4348735e-15 1550,10.745166 1550,24 L1550,232 C1550,245.254834 1539.25483,256 1526,256 L1318,256 C1304.74517,256 1294,245.254834 1294,232 L1294,24 C1294,10.745166 1304.74517,2.4348735e-15 1318,0 Z M377,0 L489,0 C502.254834,-2.4348735e-15 513,10.745166 513,24 L513,136 C513,149.254834 502.254834,160 489,160 L377,160 C363.745166,160 353,149.254834 353,136 L353,24 C353,10.745166 363.745166,2.4348735e-15 377,0 Z M1487,1549 L1148,1549 L1148,1402 C1148,1388.74517 1158.74517,1378 1172,1378 L1463,1378 C1476.25483,1378 1487,1388.74517 1487,1402 L1487,1549 Z" id="Combined-Shape" fill="#54BC5D" fill-rule="nonzero" opacity="0.267689732"></path>
                        <path d="M789,0 L1105,0 C1122.67311,2.81472554e-14 1137,14.326888 1137,32 L1137,348 C1137,365.673112 1122.67311,380 1105,380 L789,380 C771.326888,380 757,365.673112 757,348 L757,32 C757,14.326888 771.326888,3.24649801e-15 789,0 Z M1477,611 L1599,611 L1599,867 L1477,867 C1463.74517,867 1453,856.254834 1453,843 L1453,635 C1453,621.745166 1463.74517,611 1477,611 Z M658,1453 L169,1453 C155.745166,1453 145,1442.25483 145,1429 L145,1147 C145,1133.74517 155.745166,1123 169,1123 L658,1123 C671.254834,1123 682,1133.74517 682,1147 L682,1429 C682,1442.25483 671.254834,1453 658,1453 Z" id="Combined-Shape" fill="#3A7E43" fill-rule="nonzero" opacity="0.218917411"></path>
                        <path d="M653,532 L861,532 C874.254834,532 885,542.745166 885,556 L885,764 C885,777.254834 874.254834,788 861,788 L653,788 C639.745166,788 629,777.254834 629,764 L629,556 C629,542.745166 639.745166,532 653,532 Z M786,1532 L578,1532 C564.745166,1532 554,1521.25483 554,1508 L554,1300 C554,1286.74517 564.745166,1276 578,1276 L786,1276 C799.254834,1276 810,1286.74517 810,1300 L810,1508 C810,1521.25483 799.254834,1532 786,1532 Z" id="Combined-Shape" fill="#FFFFFF" fill-rule="nonzero" opacity="0.199497768"></path>
                    </g>
                </g>
            </g>
            <g id="bg_green" mask="url(#mask-2)">
                <g transform="translate(4722.500000, -101.000000) scale(-1, 1) translate(-4722.500000, 101.000000) translate(3049.000000, -1743.000000)">
                    <rect id="Rectangle" fill="url(#linearGradient-3)" fill-rule="nonzero" opacity="0.795703125" x="0" y="1684" width="1600" height="1600"></rect>
                    <g id="Group" stroke-width="1" fill="none" fill-rule="evenodd" transform="translate(1.000000, 1735.000000)">
                        <path d="M207,788 L498,788 C511.254834,788 522,798.745166 522,812 L522,945 C522,958.254834 511.254834,969 498,969 L207,969 C193.745166,969 183,958.254834 183,945 L183,812 C183,798.745166 193.745166,788 207,788 Z M0,367 L266,367 C279.254834,367 290,377.745166 290,391 L290,673 C290,686.254834 279.254834,697 266,697 L0,697 L0,609.574654 L0,367 Z M1232,1276 L941,1276 C927.745166,1276 917,1265.25483 917,1252 L917,1119 C917,1105.74517 927.745166,1095 941,1095 L1232,1095 C1245.25483,1095 1256,1105.74517 1256,1119 L1256,1252 C1256,1265.25483 1245.25483,1276 1232,1276 Z" id="Combined-Shape" fill="#FEF0FB" fill-rule="nonzero" opacity="0.403794643"></path>
                        <path d="M781,611 L1270,611 C1283.25483,611 1294,621.745166 1294,635 L1294,917 C1294,930.254834 1283.25483,941 1270,941 L781,941 C767.745166,941 757,930.254834 757,917 L757,635 C757,621.745166 767.745166,611 781,611 Z M1318,0 L1526,0 C1539.25483,-2.4348735e-15 1550,10.745166 1550,24 L1550,232 C1550,245.254834 1539.25483,256 1526,256 L1318,256 C1304.74517,256 1294,245.254834 1294,232 L1294,24 C1294,10.745166 1304.74517,2.4348735e-15 1318,0 Z M377,0 L489,0 C502.254834,-2.4348735e-15 513,10.745166 513,24 L513,136 C513,149.254834 502.254834,160 489,160 L377,160 C363.745166,160 353,149.254834 353,136 L353,24 C353,10.745166 363.745166,2.4348735e-15 377,0 Z M1487,1549 L1148,1549 L1148,1402 C1148,1388.74517 1158.74517,1378 1172,1378 L1463,1378 C1476.25483,1378 1487,1388.74517 1487,1402 L1487,1549 Z" id="Combined-Shape" fill="#54BC5D" fill-rule="nonzero" opacity="0.267689732"></path>
                        <path d="M789,0 L1105,0 C1122.67311,2.81472554e-14 1137,14.326888 1137,32 L1137,348 C1137,365.673112 1122.67311,380 1105,380 L789,380 C771.326888,380 757,365.673112 757,348 L757,32 C757,14.326888 771.326888,3.24649801e-15 789,0 Z M1477,611 L1599,611 L1599,867 L1477,867 C1463.74517,867 1453,856.254834 1453,843 L1453,635 C1453,621.745166 1463.74517,611 1477,611 Z M658,1453 L169,1453 C155.745166,1453 145,1442.25483 145,1429 L145,1147 C145,1133.74517 155.745166,1123 169,1123 L658,1123 C671.254834,1123 682,1133.74517 682,1147 L682,1429 C682,1442.25483 671.254834,1453 658,1453 Z" id="Combined-Shape" fill="#3A7E43" fill-rule="nonzero" opacity="0.218917411"></path>
                        <path d="M653,532 L861,532 C874.254834,532 885,542.745166 885,556 L885,764 C885,777.254834 874.254834,788 861,788 L653,788 C639.745166,788 629,777.254834 629,764 L629,556 C629,542.745166 639.745166,532 653,532 Z M786,1532 L578,1532 C564.745166,1532 554,1521.25483 554,1508 L554,1300 C554,1286.74517 564.745166,1276 578,1276 L786,1276 C799.254834,1276 810,1286.74517 810,1300 L810,1508 C810,1521.25483 799.254834,1532 786,1532 Z" id="Combined-Shape" fill="#FFFFFF" fill-rule="nonzero" opacity="0.199497768"></path>
                    </g>
                </g>
            </g>
            <g id="bg_green" mask="url(#mask-2)">
                <g transform="translate(6395.000000, -101.000000)">
                    <rect id="Rectangle" fill="url(#linearGradient-3)" fill-rule="nonzero" opacity="0.795703125" x="0" y="0" width="1600" height="1600"></rect>
                    <g id="Group" stroke-width="1" fill="none" fill-rule="evenodd" transform="translate(1.000000, 51.000000)">
                        <path d="M207,788 L498,788 C511.254834,788 522,798.745166 522,812 L522,945 C522,958.254834 511.254834,969 498,969 L207,969 C193.745166,969 183,958.254834 183,945 L183,812 C183,798.745166 193.745166,788 207,788 Z M0,367 L266,367 C279.254834,367 290,377.745166 290,391 L290,673 C290,686.254834 279.254834,697 266,697 L0,697 L0,609.574654 L0,367 Z M1232,1276 L941,1276 C927.745166,1276 917,1265.25483 917,1252 L917,1119 C917,1105.74517 927.745166,1095 941,1095 L1232,1095 C1245.25483,1095 1256,1105.74517 1256,1119 L1256,1252 C1256,1265.25483 1245.25483,1276 1232,1276 Z" id="Combined-Shape" fill="#FEF0FB" fill-rule="nonzero" opacity="0.403794643"></path>
                        <path d="M781,611 L1270,611 C1283.25483,611 1294,621.745166 1294,635 L1294,917 C1294,930.254834 1283.25483,941 1270,941 L781,941 C767.745166,941 757,930.254834 757,917 L757,635 C757,621.745166 767.745166,611 781,611 Z M1318,0 L1526,0 C1539.25483,-2.4348735e-15 1550,10.745166 1550,24 L1550,232 C1550,245.254834 1539.25483,256 1526,256 L1318,256 C1304.74517,256 1294,245.254834 1294,232 L1294,24 C1294,10.745166 1304.74517,2.4348735e-15 1318,0 Z M377,0 L489,0 C502.254834,-2.4348735e-15 513,10.745166 513,24 L513,136 C513,149.254834 502.254834,160 489,160 L377,160 C363.745166,160 353,149.254834 353,136 L353,24 C353,10.745166 363.745166,2.4348735e-15 377,0 Z M1487,1549 L1148,1549 L1148,1402 C1148,1388.74517 1158.74517,1378 1172,1378 L1463,1378 C1476.25483,1378 1487,1388.74517 1487,1402 L1487,1549 Z" id="Combined-Shape" fill="#54BC5D" fill-rule="nonzero" opacity="0.267689732"></path>
                        <path d="M789,0 L1105,0 C1122.67311,2.81472554e-14 1137,14.326888 1137,32 L1137,348 C1137,365.673112 1122.67311,380 1105,380 L789,380 C771.326888,380 757,365.673112 757,348 L757,32 C757,14.326888 771.326888,3.24649801e-15 789,0 Z M1477,611 L1599,611 L1599,867 L1477,867 C1463.74517,867 1453,856.254834 1453,843 L1453,635 C1453,621.745166 1463.74517,611 1477,611 Z M658,1453 L169,1453 C155.745166,1453 145,1442.25483 145,1429 L145,1147 C145,1133.74517 155.745166,1123 169,1123 L658,1123 C671.254834,1123 682,1133.74517 682,1147 L682,1429 C682,1442.25483 671.254834,1453 658,1453 Z" id="Combined-Shape" fill="#3A7E43" fill-rule="nonzero" opacity="0.218917411"></path>
                        <path d="M653,532 L861,532 C874.254834,532 885,542.745166 885,556 L885,764 C885,777.254834 874.254834,788 861,788 L653,788 C639.745166,788 629,777.254834 629,764 L629,556 C629,542.745166 639.745166,532 653,532 Z M786,1532 L578,1532 C564.745166,1532 554,1521.25483 554,1508 L554,1300 C554,1286.74517 564.745166,1276 578,1276 L786,1276 C799.254834,1276 810,1286.74517 810,1300 L810,1508 C810,1521.25483 799.254834,1532 786,1532 Z" id="Combined-Shape" fill="#FFFFFF" fill-rule="nonzero" opacity="0.199497768"></path>
                    </g>
                </g>
            </g>
        </g>
    </g>
</svg>