<?xml version="1.0" encoding="UTF-8"?>
<svg width="2000px" height="1377px" viewBox="0 0 2000 1377" version="1.1" xmlns="http://www.w3.org/2000/svg" xmlns:xlink="http://www.w3.org/1999/xlink">
    <!-- Generator: Sketch 51.1 (57501) - http://www.bohemiancoding.com/sketch -->
    <title>overlayed_trapezium</title>
    <desc>Created with Sketch.</desc>
    <defs>
        <path d="M9.09494702e-13,269.388817 C9.68561799e-13,110.350298 445.241099,5.12488504 594.055697,164.163404 C752.039984,333.001591 1023.67152,170.000408 1296.80273,50.943212 C1583.38032,-73.9752245 1817.77941,31.9303377 2000,368.659899 L2000,1376.66867 L4.54747351e-13,1376.66867 C6.88523312e-13,929.271178 8.40105763e-13,560.177894 9.09494702e-13,269.388817 Z" id="path-1"></path>
        <linearGradient x1="100%" y1="0%" x2="0%" y2="100%" id="linearGradient-3">
            <stop stop-color="#58CEB6" offset="0%"></stop>
            <stop stop-color="#6EB98D" offset="100%"></stop>
        </linearGradient>
        <linearGradient x1="0%" y1="16.293222%" x2="100%" y2="100%" id="linearGradient-4">
            <stop stop-color="#43D9C2" offset="0%"></stop>
            <stop stop-color="#000000" offset="100%"></stop>
        </linearGradient>
        <path d="M4.54747351e-13,270.148573 C5.13814448e-13,111.110054 445.241099,5.88464109 594.055697,164.923161 C752.039984,333.761347 1023.67152,170.760164 1296.80273,51.7029681 C1583.38032,-73.2154685 1817.77941,32.6900938 2000,369.419655 L2000,1377.42843 L0,1377.42843 C2.33775962e-13,930.030934 3.85358412e-13,560.93765 4.54747351e-13,270.148573 Z" id="path-5"></path>
    </defs>
    <g id="Page-1" stroke="none" stroke-width="1" fill="none" fill-rule="evenodd">
        <g id="overlayed_trapezium" transform="translate(0.000000, -1.000000)">
            <g id="triangle_back" transform="translate(1000.000000, 689.287815) scale(-1, -1) translate(-1000.000000, -689.287815) translate(0.000000, 0.787815)">
                <mask id="mask-2" fill="white">
                    <use xlink:href="#path-1"></use>
                </mask>
                <use id="Triangle" fill="#FFFFFF" fill-rule="nonzero" xlink:href="#path-1"></use>
                <g id="bg_green" mask="url(#mask-2)">
                    <g transform="translate(-147.058824, -24.210084)">
                        <rect id="Rectangle" fill="url(#linearGradient-3)" fill-rule="nonzero" opacity="0.795703125" x="0" y="0" width="1365.54622" height="1400.26832"></rect>
                        <g id="Group" stroke-width="1" fill="none" fill-rule="evenodd" transform="translate(0.569215, 45.537181)">
                            <path d="M180.21688,689.462026 L421.602249,689.462026 C434.857083,689.462026 445.602249,700.207192 445.602249,713.462026 L445.602249,823.828303 C445.602249,837.083137 434.857083,847.828303 421.602249,847.828303 L180.21688,847.828303 C166.962046,847.828303 156.21688,837.083137 156.21688,823.828303 L156.21688,713.462026 C156.21688,700.207192 166.962046,689.462026 180.21688,689.462026 Z M0,321.107314 L223.556805,321.107314 C236.811639,321.107314 247.556805,331.85248 247.556805,345.107314 L247.556805,585.841411 C247.556805,599.096245 236.811639,609.841411 223.556805,609.841411 L0,609.841411 L0,533.348446 L0,321.107314 Z M1048.17706,1116.43851 L806.79169,1116.43851 C793.536856,1116.43851 782.79169,1105.69334 782.79169,1092.43851 L782.79169,982.072231 C782.79169,968.817397 793.536856,958.072231 806.79169,958.072231 L1048.17706,958.072231 C1061.43189,958.072231 1072.17706,968.817397 1072.17706,982.072231 L1072.17706,1092.43851 C1072.17706,1105.69334 1061.43189,1116.43851 1048.17706,1116.43851 Z" id="Combined-Shape" fill="#FEF0FB" fill-rule="nonzero" opacity="0.403794643"></path>
                            <path d="M670.208625,534.595556 L1080.61554,534.595556 C1093.87037,534.595556 1104.61554,545.340722 1104.61554,558.595556 L1104.61554,799.329653 C1104.61554,812.584487 1093.87037,823.329653 1080.61554,823.329653 L670.208625,823.329653 C656.953791,823.329653 646.208625,812.584487 646.208625,799.329653 L646.208625,558.595556 C646.208625,545.340722 656.953791,534.595556 670.208625,534.595556 Z M1128.61554,0 L1299.14844,0 C1312.40327,-2.4348735e-15 1323.14844,10.745166 1323.14844,24 L1323.14844,199.987663 C1323.14844,213.242497 1312.40327,223.987663 1299.14844,223.987663 L1128.61554,223.987663 C1115.3607,223.987663 1104.61554,213.242497 1104.61554,199.987663 L1104.61554,24 C1104.61554,10.745166 1115.3607,2.4348735e-15 1128.61554,0 Z M325.336387,0 L413.919451,0 C427.174285,-1.4207531e-14 437.919451,10.745166 437.919451,24 L437.919451,115.99229 C437.919451,129.247123 427.174285,139.99229 413.919451,139.99229 L325.336387,139.99229 C312.081553,139.99229 301.336387,129.247123 301.336387,115.99229 L301.336387,24 C301.336387,10.745166 312.081553,2.4348735e-15 325.336387,0 Z M1269.36886,1355.30035 L979.98349,1355.30035 L979.98349,1229.68359 C979.98349,1216.42876 990.728656,1205.68359 1003.98349,1205.68359 L1245.36886,1205.68359 C1258.62369,1205.68359 1269.36886,1216.42876 1269.36886,1229.68359 L1269.36886,1355.30035 Z" id="Combined-Shape" fill="#54BC5D" fill-rule="nonzero" opacity="0.267689732"></path>
                            <path d="M678.208625,0 L938.593404,0 C956.266516,-3.24649801e-15 970.593404,14.326888 970.593404,32 L970.593404,300.481688 C970.593404,318.1548 956.266516,332.481688 938.593404,332.481688 L678.208625,332.481688 C660.535513,332.481688 646.208625,318.1548 646.208625,300.481688 L646.208625,32 C646.208625,14.326888 660.535513,3.24649801e-15 678.208625,0 Z M1264.34496,534.595556 L1364.977,534.595556 L1364.977,758.583219 L1264.34496,758.583219 C1251.09012,758.583219 1240.34496,747.838053 1240.34496,734.583219 L1240.34496,558.595556 C1240.34496,545.340722 1251.09012,534.595556 1264.34496,534.595556 Z M558.185314,1271.30498 L147.778402,1271.30498 C134.523568,1271.30498 123.778402,1260.55981 123.778402,1247.30498 L123.778402,1006.57088 C123.778402,993.316048 134.523568,982.570882 147.778402,982.570882 L558.185314,982.570882 C571.440148,982.570882 582.185314,993.316048 582.185314,1006.57088 L582.185314,1247.30498 C582.185314,1260.55981 571.440148,1271.30498 558.185314,1271.30498 Z" id="Combined-Shape" fill="#3A7E43" fill-rule="nonzero" opacity="0.218917411"></path>
                            <path d="M560.942173,465.474363 L731.475077,465.474363 C744.729911,465.474363 755.475077,476.219529 755.475077,489.474363 L755.475077,665.462026 C755.475077,678.71686 744.729911,689.462026 731.475077,689.462026 L560.942173,689.462026 C547.687339,689.462026 536.942173,678.71686 536.942173,665.462026 L536.942173,489.474363 C536.942173,476.219529 547.687339,465.474363 560.942173,465.474363 Z M667.451765,1340.42617 L496.918862,1340.42617 C483.664028,1340.42617 472.918862,1329.68101 472.918862,1316.42617 L472.918862,1140.43851 C472.918862,1127.18367 483.664028,1116.43851 496.918862,1116.43851 L667.451765,1116.43851 C680.706599,1116.43851 691.451765,1127.18367 691.451765,1140.43851 L691.451765,1316.42617 C691.451765,1329.68101 680.706599,1340.42617 667.451765,1340.42617 Z" id="Combined-Shape" fill="#FFFFFF" fill-rule="nonzero" opacity="0.199497768"></path>
                        </g>
                        <g id="Group" stroke-width="1" fill="none" fill-rule="evenodd" transform="translate(0.569215, 45.537181)">
                            <path d="M180.21688,689.462026 L421.602249,689.462026 C434.857083,689.462026 445.602249,700.207192 445.602249,713.462026 L445.602249,823.828303 C445.602249,837.083137 434.857083,847.828303 421.602249,847.828303 L180.21688,847.828303 C166.962046,847.828303 156.21688,837.083137 156.21688,823.828303 L156.21688,713.462026 C156.21688,700.207192 166.962046,689.462026 180.21688,689.462026 Z M0,321.107314 L223.556805,321.107314 C236.811639,321.107314 247.556805,331.85248 247.556805,345.107314 L247.556805,585.841411 C247.556805,599.096245 236.811639,609.841411 223.556805,609.841411 L0,609.841411 L0,533.348446 L0,321.107314 Z M1048.17706,1116.43851 L806.79169,1116.43851 C793.536856,1116.43851 782.79169,1105.69334 782.79169,1092.43851 L782.79169,982.072231 C782.79169,968.817397 793.536856,958.072231 806.79169,958.072231 L1048.17706,958.072231 C1061.43189,958.072231 1072.17706,968.817397 1072.17706,982.072231 L1072.17706,1092.43851 C1072.17706,1105.69334 1061.43189,1116.43851 1048.17706,1116.43851 Z" id="Combined-Shape" fill="#FEF0FB" fill-rule="nonzero" opacity="0.403794643"></path>
                            <path d="M670.208625,534.595556 L1080.61554,534.595556 C1093.87037,534.595556 1104.61554,545.340722 1104.61554,558.595556 L1104.61554,799.329653 C1104.61554,812.584487 1093.87037,823.329653 1080.61554,823.329653 L670.208625,823.329653 C656.953791,823.329653 646.208625,812.584487 646.208625,799.329653 L646.208625,558.595556 C646.208625,545.340722 656.953791,534.595556 670.208625,534.595556 Z M1128.61554,0 L1299.14844,0 C1312.40327,-2.4348735e-15 1323.14844,10.745166 1323.14844,24 L1323.14844,199.987663 C1323.14844,213.242497 1312.40327,223.987663 1299.14844,223.987663 L1128.61554,223.987663 C1115.3607,223.987663 1104.61554,213.242497 1104.61554,199.987663 L1104.61554,24 C1104.61554,10.745166 1115.3607,2.4348735e-15 1128.61554,0 Z M325.336387,0 L413.919451,3.55271368e-15 C427.174285,-1.06548173e-14 437.919451,10.745166 437.919451,24 L437.919451,115.99229 C437.919451,129.247123 427.174285,139.99229 413.919451,139.99229 L325.336387,139.99229 C312.081553,139.99229 301.336387,129.247123 301.336387,115.99229 L301.336387,24 C301.336387,10.745166 312.081553,5.98758718e-15 325.336387,3.55271368e-15 Z M1269.36886,1355.30035 L979.98349,1355.30035 L979.98349,1229.68359 C979.98349,1216.42876 990.728656,1205.68359 1003.98349,1205.68359 L1245.36886,1205.68359 C1258.62369,1205.68359 1269.36886,1216.42876 1269.36886,1229.68359 L1269.36886,1355.30035 Z" id="Combined-Shape" fill="#54BC5D" fill-rule="nonzero" opacity="0.267689732"></path>
                            <path d="M678.208625,0 L938.593404,0 C956.266516,-3.46402514e-14 970.593404,14.326888 970.593404,32 L970.593404,300.481688 C970.593404,318.1548 956.266516,332.481688 938.593404,332.481688 L678.208625,332.481688 C660.535513,332.481688 646.208625,318.1548 646.208625,300.481688 L646.208625,32 C646.208625,14.326888 660.535513,3.24649801e-15 678.208625,0 Z M1264.34496,534.595556 L1364.977,534.595556 L1364.977,758.583219 L1264.34496,758.583219 C1251.09012,758.583219 1240.34496,747.838053 1240.34496,734.583219 L1240.34496,558.595556 C1240.34496,545.340722 1251.09012,534.595556 1264.34496,534.595556 Z M558.185314,1271.30498 L147.778402,1271.30498 C134.523568,1271.30498 123.778402,1260.55981 123.778402,1247.30498 L123.778402,1006.57088 C123.778402,993.316048 134.523568,982.570882 147.778402,982.570882 L558.185314,982.570882 C571.440148,982.570882 582.185314,993.316048 582.185314,1006.57088 L582.185314,1247.30498 C582.185314,1260.55981 571.440148,1271.30498 558.185314,1271.30498 Z" id="Combined-Shape" fill="#3A7E43" fill-rule="nonzero" opacity="0.218917411"></path>
                            <path d="M560.942173,465.474363 L731.475077,465.474363 C744.729911,465.474363 755.475077,476.219529 755.475077,489.474363 L755.475077,665.462026 C755.475077,678.71686 744.729911,689.462026 731.475077,689.462026 L560.942173,689.462026 C547.687339,689.462026 536.942173,678.71686 536.942173,665.462026 L536.942173,489.474363 C536.942173,476.219529 547.687339,465.474363 560.942173,465.474363 Z M667.451765,1340.42617 L496.918862,1340.42617 C483.664028,1340.42617 472.918862,1329.68101 472.918862,1316.42617 L472.918862,1140.43851 C472.918862,1127.18367 483.664028,1116.43851 496.918862,1116.43851 L667.451765,1116.43851 C680.706599,1116.43851 691.451765,1127.18367 691.451765,1140.43851 L691.451765,1316.42617 C691.451765,1329.68101 680.706599,1340.42617 667.451765,1340.42617 Z" id="Combined-Shape" fill="#FFFFFF" fill-rule="nonzero" opacity="0.199497768"></path>
                        </g>
                    </g>
                </g>
                <g id="bg_green" mask="url(#mask-2)">
                    <g transform="translate(1900.997899, 676.288866) scale(-1, 1) translate(-1900.997899, -676.288866) translate(1218.224790, -24.210084)">
                        <rect id="Rectangle" fill="url(#linearGradient-3)" fill-rule="nonzero" opacity="0.795703125" x="0" y="0" width="1365.54622" height="1400.26832"></rect>
                        <g id="Group" stroke-width="1" fill="none" fill-rule="evenodd" transform="translate(0.569215, 45.537181)">
                            <path d="M180.21688,689.462026 L421.602249,689.462026 C434.857083,689.462026 445.602249,700.207192 445.602249,713.462026 L445.602249,823.828303 C445.602249,837.083137 434.857083,847.828303 421.602249,847.828303 L180.21688,847.828303 C166.962046,847.828303 156.21688,837.083137 156.21688,823.828303 L156.21688,713.462026 C156.21688,700.207192 166.962046,689.462026 180.21688,689.462026 Z M0,321.107314 L223.556805,321.107314 C236.811639,321.107314 247.556805,331.85248 247.556805,345.107314 L247.556805,585.841411 C247.556805,599.096245 236.811639,609.841411 223.556805,609.841411 L0,609.841411 L0,533.348446 L0,321.107314 Z M1048.17706,1116.43851 L806.79169,1116.43851 C793.536856,1116.43851 782.79169,1105.69334 782.79169,1092.43851 L782.79169,982.072231 C782.79169,968.817397 793.536856,958.072231 806.79169,958.072231 L1048.17706,958.072231 C1061.43189,958.072231 1072.17706,968.817397 1072.17706,982.072231 L1072.17706,1092.43851 C1072.17706,1105.69334 1061.43189,1116.43851 1048.17706,1116.43851 Z" id="Combined-Shape" fill="#FEF0FB" fill-rule="nonzero" opacity="0.403794643"></path>
                            <path d="M670.208625,534.595556 L1080.61554,534.595556 C1093.87037,534.595556 1104.61554,545.340722 1104.61554,558.595556 L1104.61554,799.329653 C1104.61554,812.584487 1093.87037,823.329653 1080.61554,823.329653 L670.208625,823.329653 C656.953791,823.329653 646.208625,812.584487 646.208625,799.329653 L646.208625,558.595556 C646.208625,545.340722 656.953791,534.595556 670.208625,534.595556 Z M1128.61554,0 L1299.14844,0 C1312.40327,-2.4348735e-15 1323.14844,10.745166 1323.14844,24 L1323.14844,199.987663 C1323.14844,213.242497 1312.40327,223.987663 1299.14844,223.987663 L1128.61554,223.987663 C1115.3607,223.987663 1104.61554,213.242497 1104.61554,199.987663 L1104.61554,24 C1104.61554,10.745166 1115.3607,2.4348735e-15 1128.61554,0 Z M325.336387,0 L413.919451,0 C427.174285,-2.4348735e-15 437.919451,10.745166 437.919451,24 L437.919451,115.99229 C437.919451,129.247123 427.174285,139.99229 413.919451,139.99229 L325.336387,139.99229 C312.081553,139.99229 301.336387,129.247123 301.336387,115.99229 L301.336387,24 C301.336387,10.745166 312.081553,2.4348735e-15 325.336387,0 Z M1269.36886,1355.30035 L979.98349,1355.30035 L979.98349,1229.68359 C979.98349,1216.42876 990.728656,1205.68359 1003.98349,1205.68359 L1245.36886,1205.68359 C1258.62369,1205.68359 1269.36886,1216.42876 1269.36886,1229.68359 L1269.36886,1355.30035 Z" id="Combined-Shape" fill="#54BC5D" fill-rule="nonzero" opacity="0.267689732"></path>
                            <path d="M678.208625,0 L938.593404,-3.55271368e-15 C956.266516,-6.79921168e-15 970.593404,14.326888 970.593404,32 L970.593404,300.481688 C970.593404,318.1548 956.266516,332.481688 938.593404,332.481688 L678.208625,332.481688 C660.535513,332.481688 646.208625,318.1548 646.208625,300.481688 L646.208625,32 C646.208625,14.326888 660.535513,3.24649801e-15 678.208625,0 Z M1264.34496,534.595556 L1364.977,534.595556 L1364.977,758.583219 L1264.34496,758.583219 C1251.09012,758.583219 1240.34496,747.838053 1240.34496,734.583219 L1240.34496,558.595556 C1240.34496,545.340722 1251.09012,534.595556 1264.34496,534.595556 Z M558.185314,1271.30498 L147.778402,1271.30498 C134.523568,1271.30498 123.778402,1260.55981 123.778402,1247.30498 L123.778402,1006.57088 C123.778402,993.316048 134.523568,982.570882 147.778402,982.570882 L558.185314,982.570882 C571.440148,982.570882 582.185314,993.316048 582.185314,1006.57088 L582.185314,1247.30498 C582.185314,1260.55981 571.440148,1271.30498 558.185314,1271.30498 Z" id="Combined-Shape" fill="#3A7E43" fill-rule="nonzero" opacity="0.218917411"></path>
                            <path d="M560.942173,465.474363 L731.475077,465.474363 C744.729911,465.474363 755.475077,476.219529 755.475077,489.474363 L755.475077,665.462026 C755.475077,678.71686 744.729911,689.462026 731.475077,689.462026 L560.942173,689.462026 C547.687339,689.462026 536.942173,678.71686 536.942173,665.462026 L536.942173,489.474363 C536.942173,476.219529 547.687339,465.474363 560.942173,465.474363 Z M667.451765,1340.42617 L496.918862,1340.42617 C483.664028,1340.42617 472.918862,1329.68101 472.918862,1316.42617 L472.918862,1140.43851 C472.918862,1127.18367 483.664028,1116.43851 496.918862,1116.43851 L667.451765,1116.43851 C680.706599,1116.43851 691.451765,1127.18367 691.451765,1140.43851 L691.451765,1316.42617 C691.451765,1329.68101 680.706599,1340.42617 667.451765,1340.42617 Z" id="Combined-Shape" fill="#FFFFFF" fill-rule="nonzero" opacity="0.199497768"></path>
                        </g>
                        <g id="Group" stroke-width="1" fill="none" fill-rule="evenodd" transform="translate(0.569215, 45.537181)">
                            <path d="M180.21688,689.462026 L421.602249,689.462026 C434.857083,689.462026 445.602249,700.207192 445.602249,713.462026 L445.602249,823.828303 C445.602249,837.083137 434.857083,847.828303 421.602249,847.828303 L180.21688,847.828303 C166.962046,847.828303 156.21688,837.083137 156.21688,823.828303 L156.21688,713.462026 C156.21688,700.207192 166.962046,689.462026 180.21688,689.462026 Z M0,321.107314 L223.556805,321.107314 C236.811639,321.107314 247.556805,331.85248 247.556805,345.107314 L247.556805,585.841411 C247.556805,599.096245 236.811639,609.841411 223.556805,609.841411 L0,609.841411 L0,533.348446 L0,321.107314 Z M1048.17706,1116.43851 L806.79169,1116.43851 C793.536856,1116.43851 782.79169,1105.69334 782.79169,1092.43851 L782.79169,982.072231 C782.79169,968.817397 793.536856,958.072231 806.79169,958.072231 L1048.17706,958.072231 C1061.43189,958.072231 1072.17706,968.817397 1072.17706,982.072231 L1072.17706,1092.43851 C1072.17706,1105.69334 1061.43189,1116.43851 1048.17706,1116.43851 Z" id="Combined-Shape" fill="#FEF0FB" fill-rule="nonzero" opacity="0.403794643"></path>
                            <path d="M670.208625,534.595556 L1080.61554,534.595556 C1093.87037,534.595556 1104.61554,545.340722 1104.61554,558.595556 L1104.61554,799.329653 C1104.61554,812.584487 1093.87037,823.329653 1080.61554,823.329653 L670.208625,823.329653 C656.953791,823.329653 646.208625,812.584487 646.208625,799.329653 L646.208625,558.595556 C646.208625,545.340722 656.953791,534.595556 670.208625,534.595556 Z M1128.61554,0 L1299.14844,0 C1312.40327,-2.4348735e-15 1323.14844,10.745166 1323.14844,24 L1323.14844,199.987663 C1323.14844,213.242497 1312.40327,223.987663 1299.14844,223.987663 L1128.61554,223.987663 C1115.3607,223.987663 1104.61554,213.242497 1104.61554,199.987663 L1104.61554,24 C1104.61554,10.745166 1115.3607,2.4348735e-15 1128.61554,0 Z M325.336387,0 L413.919451,0 C427.174285,-2.4348735e-15 437.919451,10.745166 437.919451,24 L437.919451,115.99229 C437.919451,129.247123 427.174285,139.99229 413.919451,139.99229 L325.336387,139.99229 C312.081553,139.99229 301.336387,129.247123 301.336387,115.99229 L301.336387,24 C301.336387,10.745166 312.081553,2.4348735e-15 325.336387,0 Z M1269.36886,1355.30035 L979.98349,1355.30035 L979.98349,1229.68359 C979.98349,1216.42876 990.728656,1205.68359 1003.98349,1205.68359 L1245.36886,1205.68359 C1258.62369,1205.68359 1269.36886,1216.42876 1269.36886,1229.68359 L1269.36886,1355.30035 Z" id="Combined-Shape" fill="#54BC5D" fill-rule="nonzero" opacity="0.267689732"></path>
                            <path d="M678.208625,0 L938.593404,-3.55271368e-15 C956.266516,-6.79921168e-15 970.593404,14.326888 970.593404,32 L970.593404,300.481688 C970.593404,318.1548 956.266516,332.481688 938.593404,332.481688 L678.208625,332.481688 C660.535513,332.481688 646.208625,318.1548 646.208625,300.481688 L646.208625,32 C646.208625,14.326888 660.535513,3.24649801e-15 678.208625,0 Z M1264.34496,534.595556 L1364.977,534.595556 L1364.977,758.583219 L1264.34496,758.583219 C1251.09012,758.583219 1240.34496,747.838053 1240.34496,734.583219 L1240.34496,558.595556 C1240.34496,545.340722 1251.09012,534.595556 1264.34496,534.595556 Z M558.185314,1271.30498 L147.778402,1271.30498 C134.523568,1271.30498 123.778402,1260.55981 123.778402,1247.30498 L123.778402,1006.57088 C123.778402,993.316048 134.523568,982.570882 147.778402,982.570882 L558.185314,982.570882 C571.440148,982.570882 582.185314,993.316048 582.185314,1006.57088 L582.185314,1247.30498 C582.185314,1260.55981 571.440148,1271.30498 558.185314,1271.30498 Z" id="Combined-Shape" fill="#3A7E43" fill-rule="nonzero" opacity="0.218917411"></path>
                            <path d="M560.942173,465.474363 L731.475077,465.474363 C744.729911,465.474363 755.475077,476.219529 755.475077,489.474363 L755.475077,665.462026 C755.475077,678.71686 744.729911,689.462026 731.475077,689.462026 L560.942173,689.462026 C547.687339,689.462026 536.942173,678.71686 536.942173,665.462026 L536.942173,489.474363 C536.942173,476.219529 547.687339,465.474363 560.942173,465.474363 Z M667.451765,1340.42617 L496.918862,1340.42617 C483.664028,1340.42617 472.918862,1329.68101 472.918862,1316.42617 L472.918862,1140.43851 C472.918862,1127.18367 483.664028,1116.43851 496.918862,1116.43851 L667.451765,1116.43851 C680.706599,1116.43851 691.451765,1127.18367 691.451765,1140.43851 L691.451765,1316.42617 C691.451765,1329.68101 680.706599,1340.42617 667.451765,1340.42617 Z" id="Combined-Shape" fill="#FFFFFF" fill-rule="nonzero" opacity="0.199497768"></path>
                        </g>
                    </g>
                </g>
            </g>
            <mask id="mask-6" fill="white">
                <use xlink:href="#path-5"></use>
            </mask>
            <use id="Triangle" fill="url(#linearGradient-4)" fill-rule="nonzero" opacity="0.450669643" transform="translate(1000.000000, 689.214213) scale(-1, -1) translate(-1000.000000, -689.214213) " xlink:href="#path-5"></use>
        </g>
    </g>
</svg>