<?xml version="1.0" encoding="UTF-8"?>
<svg width="2000px" height="497px" viewBox="0 0 2000 497" version="1.1" xmlns="http://www.w3.org/2000/svg" xmlns:xlink="http://www.w3.org/1999/xlink">
    <!-- Generator: Sketch 51.1 (57501) - http://www.bohemiancoding.com/sketch -->
    <title>overlayed_triangle</title>
    <desc>Created with Sketch.</desc>
    <defs>
        <path d="M-3.41060513e-13,130.01284 C108.81376,209.153131 229.330451,233.956739 361.550074,204.423665 C559.879508,160.124054 789.268308,46.8075111 945.515954,18.4329956 C1101.7636,-9.94151993 1240.62346,-22.7248101 1547.18997,130.01284 C1751.56764,231.83794 1902.50432,354.03254 2000,496.596639 L314.011838,496.596639 L-3.41060513e-13,496.596639 L-3.41060513e-13,130.01284 Z" id="path-1"></path>
        <linearGradient x1="100%" y1="0%" x2="0%" y2="100%" id="linearGradient-3">
            <stop stop-color="#58CEB6" offset="0%"></stop>
            <stop stop-color="#6EB98D" offset="100%"></stop>
        </linearGradient>
        <linearGradient x1="-16.5122452%" y1="117.622623%" x2="105.053122%" y2="0%" id="linearGradient-4">
            <stop stop-color="#000000" offset="0%"></stop>
            <stop stop-color="#43D9C2" offset="100%"></stop>
        </linearGradient>
        <path d="M0,129.224158 C108.81376,208.364448 229.330451,233.168057 361.550074,203.634983 C559.879508,159.335371 789.268308,46.0188287 945.515954,17.6443132 C1101.7636,-10.7302023 1240.62346,-23.5134924 1547.18997,129.224158 C1751.56764,231.049258 1902.50432,353.243857 2000,495.807956 L314.011838,495.807956 L0,495.807956 L0,129.224158 Z" id="path-5"></path>
    </defs>
    <g id="Page-1" stroke="none" stroke-width="1" fill="none" fill-rule="evenodd">
        <g id="overlayed_triangle">
            <g id="triangle_back">
                <mask id="mask-2" fill="white">
                    <use xlink:href="#path-1"></use>
                </mask>
                <use id="Triangle" fill="#FFFFFF" fill-rule="nonzero" xlink:href="#path-1"></use>
                <g id="bg_green" mask="url(#mask-2)">
                    <g transform="translate(316.500000, 263.000000) scale(-1, 1) translate(-316.500000, -263.000000) translate(-367.000000, -420.000000)">
                        <rect id="Rectangle" fill="url(#linearGradient-3)" fill-rule="nonzero" opacity="0.795703125" x="1" y="0" width="1365" height="1365"></rect>
                        <g id="Group" stroke-width="1" fill="none" fill-rule="evenodd" transform="translate(0.853125, 43.509375)">
                            <path d="M181.121875,672.2625 L422.33125,672.2625 C435.586084,672.2625 446.33125,683.007666 446.33125,696.2625 L446.33125,802.678125 C446.33125,815.932959 435.586084,826.678125 422.33125,826.678125 L181.121875,826.678125 C167.867041,826.678125 157.121875,815.932959 157.121875,802.678125 L157.121875,696.2625 C157.121875,683.007666 167.867041,672.2625 181.121875,672.2625 Z M0,313.096875 L223.40625,313.096875 C236.661084,313.096875 247.40625,323.842041 247.40625,337.096875 L247.40625,570.628125 C247.40625,583.882959 236.661084,594.628125 223.40625,594.628125 L0,594.628125 L0,520.043377 L0,313.096875 Z M1048.525,1088.5875 L807.315625,1088.5875 C794.060791,1088.5875 783.315625,1077.84233 783.315625,1064.5875 L783.315625,958.171875 C783.315625,944.917041 794.060791,934.171875 807.315625,934.171875 L1048.525,934.171875 C1061.77983,934.171875 1072.525,944.917041 1072.525,958.171875 L1072.525,1064.5875 C1072.525,1077.84233 1061.77983,1088.5875 1048.525,1088.5875 Z" id="Combined-Shape" fill="#FEF0FB" fill-rule="nonzero" opacity="0.403794643"></path>
                            <path d="M670.815625,521.259375 L1080.94375,521.259375 C1094.19858,521.259375 1104.94375,532.004541 1104.94375,545.259375 L1104.94375,778.790625 C1104.94375,792.045459 1094.19858,802.790625 1080.94375,802.790625 L670.815625,802.790625 C657.560791,802.790625 646.815625,792.045459 646.815625,778.790625 L646.815625,545.259375 C646.815625,532.004541 657.560791,521.259375 670.815625,521.259375 Z M1128.94375,0 L1299.34375,-3.55271368e-15 C1312.59858,-5.98758718e-15 1323.34375,10.745166 1323.34375,24 L1323.34375,194.4 C1323.34375,207.654834 1312.59858,218.4 1299.34375,218.4 L1128.94375,218.4 C1115.68892,218.4 1104.94375,207.654834 1104.94375,194.4 L1104.94375,24 C1104.94375,10.745166 1115.68892,-1.11784017e-15 1128.94375,-3.55271368e-15 Z M326.153125,0 L414.653125,0 C427.907959,-2.4348735e-15 438.653125,10.745166 438.653125,24 L438.653125,112.5 C438.653125,125.754834 427.907959,136.5 414.653125,136.5 L326.153125,136.5 C312.898291,136.5 302.153125,125.754834 302.153125,112.5 L302.153125,24 C302.153125,10.745166 312.898291,-4.67055385e-15 326.153125,-7.10542736e-15 Z M1269.59688,1321.49062 L980.3875,1321.49062 L980.3875,1199.60625 C980.3875,1186.35142 991.132666,1175.60625 1004.3875,1175.60625 L1245.59688,1175.60625 C1258.85171,1175.60625 1269.59688,1186.35142 1269.59688,1199.60625 L1269.59688,1321.49062 Z" id="Combined-Shape" fill="#54BC5D" fill-rule="nonzero" opacity="0.267689732"></path>
                            <path d="M678.815625,0 L939.003125,-3.55271368e-15 C956.676237,-6.79921168e-15 971.003125,14.326888 971.003125,32 L971.003125,292.1875 C971.003125,309.860612 956.676237,324.1875 939.003125,324.1875 L678.815625,324.1875 C661.142513,324.1875 646.815625,309.860612 646.815625,292.1875 L646.815625,32 C646.815625,14.326888 661.142513,3.24649801e-15 678.815625,0 Z M1264.59063,521.259375 L1365.14688,521.259375 L1365.14688,739.659375 L1264.59063,739.659375 C1251.33579,739.659375 1240.59063,728.914209 1240.59063,715.659375 L1240.59063,545.259375 C1240.59063,532.004541 1251.33579,521.259375 1264.59063,521.259375 Z M558.83125,1239.59063 L148.703125,1239.59063 C135.448291,1239.59063 124.703125,1228.84546 124.703125,1215.59063 L124.703125,982.059375 C124.703125,968.804541 135.448291,958.059375 148.703125,958.059375 L558.83125,958.059375 C572.086084,958.059375 582.83125,968.804541 582.83125,982.059375 L582.83125,1215.59063 C582.83125,1228.84546 572.086084,1239.59063 558.83125,1239.59063 Z" id="Combined-Shape" fill="#3A7E43" fill-rule="nonzero" opacity="0.218917411"></path>
                            <path d="M561.615625,453.8625 L732.015625,453.8625 C745.270459,453.8625 756.015625,464.607666 756.015625,477.8625 L756.015625,648.2625 C756.015625,661.517334 745.270459,672.2625 732.015625,672.2625 L561.615625,672.2625 C548.360791,672.2625 537.615625,661.517334 537.615625,648.2625 L537.615625,477.8625 C537.615625,464.607666 548.360791,453.8625 561.615625,453.8625 Z M668.03125,1306.9875 L497.63125,1306.9875 C484.376416,1306.9875 473.63125,1296.24233 473.63125,1282.9875 L473.63125,1112.5875 C473.63125,1099.33267 484.376416,1088.5875 497.63125,1088.5875 L668.03125,1088.5875 C681.286084,1088.5875 692.03125,1099.33267 692.03125,1112.5875 L692.03125,1282.9875 C692.03125,1296.24233 681.286084,1306.9875 668.03125,1306.9875 Z" id="Combined-Shape" fill="#FFFFFF" fill-rule="nonzero" opacity="0.199497768"></path>
                        </g>
                    </g>
                </g>
                <g id="bg_green" mask="url(#mask-2)">
                    <g transform="translate(997.900000, -420.000000)">
                        <rect id="Rectangle" fill="url(#linearGradient-3)" fill-rule="nonzero" opacity="0.795703125" x="1" y="0" width="1365" height="1365"></rect>
                        <g id="Group" stroke-width="1" fill="none" fill-rule="evenodd" transform="translate(0.853125, 43.509375)">
                            <path d="M181.121875,672.2625 L422.33125,672.2625 C435.586084,672.2625 446.33125,683.007666 446.33125,696.2625 L446.33125,802.678125 C446.33125,815.932959 435.586084,826.678125 422.33125,826.678125 L181.121875,826.678125 C167.867041,826.678125 157.121875,815.932959 157.121875,802.678125 L157.121875,696.2625 C157.121875,683.007666 167.867041,672.2625 181.121875,672.2625 Z M0,313.096875 L223.40625,313.096875 C236.661084,313.096875 247.40625,323.842041 247.40625,337.096875 L247.40625,570.628125 C247.40625,583.882959 236.661084,594.628125 223.40625,594.628125 L0,594.628125 L0,520.043377 L0,313.096875 Z M1048.525,1088.5875 L807.315625,1088.5875 C794.060791,1088.5875 783.315625,1077.84233 783.315625,1064.5875 L783.315625,958.171875 C783.315625,944.917041 794.060791,934.171875 807.315625,934.171875 L1048.525,934.171875 C1061.77983,934.171875 1072.525,944.917041 1072.525,958.171875 L1072.525,1064.5875 C1072.525,1077.84233 1061.77983,1088.5875 1048.525,1088.5875 Z" id="Combined-Shape" fill="#FEF0FB" fill-rule="nonzero" opacity="0.403794643"></path>
                            <path d="M670.815625,521.259375 L1080.94375,521.259375 C1094.19858,521.259375 1104.94375,532.004541 1104.94375,545.259375 L1104.94375,778.790625 C1104.94375,792.045459 1094.19858,802.790625 1080.94375,802.790625 L670.815625,802.790625 C657.560791,802.790625 646.815625,792.045459 646.815625,778.790625 L646.815625,545.259375 C646.815625,532.004541 657.560791,521.259375 670.815625,521.259375 Z M1128.94375,0 L1299.34375,0 C1312.59858,-2.4348735e-15 1323.34375,10.745166 1323.34375,24 L1323.34375,194.4 C1323.34375,207.654834 1312.59858,218.4 1299.34375,218.4 L1128.94375,218.4 C1115.68892,218.4 1104.94375,207.654834 1104.94375,194.4 L1104.94375,24 C1104.94375,10.745166 1115.68892,2.4348735e-15 1128.94375,0 Z M326.153125,0 L414.653125,3.55271368e-15 C427.907959,1.11784017e-15 438.653125,10.745166 438.653125,24 L438.653125,112.5 C438.653125,125.754834 427.907959,136.5 414.653125,136.5 L326.153125,136.5 C312.898291,136.5 302.153125,125.754834 302.153125,112.5 L302.153125,24 C302.153125,10.745166 312.898291,9.54030086e-15 326.153125,7.10542736e-15 Z M1269.59688,1321.49062 L980.3875,1321.49062 L980.3875,1199.60625 C980.3875,1186.35142 991.132666,1175.60625 1004.3875,1175.60625 L1245.59688,1175.60625 C1258.85171,1175.60625 1269.59688,1186.35142 1269.59688,1199.60625 L1269.59688,1321.49062 Z" id="Combined-Shape" fill="#54BC5D" fill-rule="nonzero" opacity="0.267689732"></path>
                            <path d="M678.815625,0 L939.003125,-3.55271368e-15 C956.676237,-6.79921168e-15 971.003125,14.326888 971.003125,32 L971.003125,292.1875 C971.003125,309.860612 956.676237,324.1875 939.003125,324.1875 L678.815625,324.1875 C661.142513,324.1875 646.815625,309.860612 646.815625,292.1875 L646.815625,32 C646.815625,14.326888 661.142513,3.24649801e-15 678.815625,0 Z M1264.59063,521.259375 L1365.14688,521.259375 L1365.14688,739.659375 L1264.59063,739.659375 C1251.33579,739.659375 1240.59063,728.914209 1240.59063,715.659375 L1240.59063,545.259375 C1240.59063,532.004541 1251.33579,521.259375 1264.59063,521.259375 Z M558.83125,1239.59063 L148.703125,1239.59063 C135.448291,1239.59063 124.703125,1228.84546 124.703125,1215.59063 L124.703125,982.059375 C124.703125,968.804541 135.448291,958.059375 148.703125,958.059375 L558.83125,958.059375 C572.086084,958.059375 582.83125,968.804541 582.83125,982.059375 L582.83125,1215.59063 C582.83125,1228.84546 572.086084,1239.59063 558.83125,1239.59063 Z" id="Combined-Shape" fill="#3A7E43" fill-rule="nonzero" opacity="0.218917411"></path>
                            <path d="M539.615625,453.8625 L754.015625,453.8625 C755.120194,453.8625 756.015625,454.757931 756.015625,455.8625 L756.015625,670.2625 C756.015625,671.367069 755.120194,672.2625 754.015625,672.2625 L539.615625,672.2625 C538.511056,672.2625 537.615625,671.367069 537.615625,670.2625 L537.615625,455.8625 C537.615625,454.757931 538.511056,453.8625 539.615625,453.8625 Z M690.03125,1306.9875 L475.63125,1306.9875 C474.526681,1306.9875 473.63125,1306.09207 473.63125,1304.9875 L473.63125,1090.5875 C473.63125,1089.48293 474.526681,1088.5875 475.63125,1088.5875 L690.03125,1088.5875 C691.135819,1088.5875 692.03125,1089.48293 692.03125,1090.5875 L692.03125,1304.9875 C692.03125,1306.09207 691.135819,1306.9875 690.03125,1306.9875 Z" id="Combined-Shape" fill="#FFFFFF" fill-rule="nonzero" opacity="0.199497768"></path>
                        </g>
                    </g>
                </g>
            </g>
            <mask id="mask-6" fill="white">
                <use xlink:href="#path-5"></use>
            </mask>
            <use id="Triangle" fill="url(#linearGradient-4)" fill-rule="nonzero" opacity="0.449609375" xlink:href="#path-5"></use>
        </g>
    </g>
</svg>